<svg xmlns="http://www.w3.org/2000/svg" viewBox="0 0 151 151"><defs><style>.cls-1{fill:#333;}.cls-2{font-size:16px;fill:#fff;font-family:Kanit-Regular, Kanit;}.cls-3{letter-spacing:-0.02em;}.cls-4{letter-spacing:-0.05em;}.cls-5{letter-spacing:-0.04em;}.cls-6{letter-spacing:-0.03em;}</style></defs><title>boardAsset 4</title><g id="Layer_2" data-name="Layer 2"><g id="Layer_3" data-name="Layer 3"><rect class="cls-1" x="37" y="37" width="77" height="77" rx="12" ry="12"/><rect class="cls-1" y="45" width="29" height="8" rx="4" ry="4"/><rect class="cls-1" x="122" y="45" width="29" height="8" rx="4" ry="4"/><rect class="cls-1" x="122" y="71" width="29" height="8" rx="4" ry="4"/><rect class="cls-1" x="122" y="97" width="29" height="8" rx="4" ry="4"/><rect class="cls-1" y="71" width="29" height="8" rx="4" ry="4"/><rect class="cls-1" y="97" width="29" height="8" rx="4" ry="4"/><rect class="cls-1" x="61.93" y="35.97" width="29" height="8" rx="4" ry="4" transform="translate(10.03 90.93) rotate(-90)"/><rect class="cls-1" x="87.93" y="35.97" width="29" height="8" rx="4" ry="4" transform="translate(36.03 116.93) rotate(-90)"/><rect class="cls-1" x="113.93" y="35.97" width="29" height="8" rx="4" ry="4" transform="translate(62.03 142.93) rotate(-90)"/><rect class="cls-1" x="61.93" y="157.97" width="29" height="8" rx="4" ry="4" transform="translate(-111.97 212.93) rotate(-90)"/><rect class="cls-1" x="87.93" y="157.97" width="29" height="8" rx="4" ry="4" transform="translate(-85.97 238.93) rotate(-90)"/><rect class="cls-1" x="113.93" y="157.97" width="29" height="8" rx="4" ry="4" transform="translate(-59.97 264.93) rotate(-90)"/><text class="cls-2" transform="translate(48.78 79.8)"><tspan class="cls-3">C</tspan><tspan class="cls-4" x="9.15" y="0">r</tspan><tspan class="cls-5" x="14.14" y="0">yC</tspan><tspan x="31.82" y="0">a</tspan><tspan class="cls-6" x="40.58" y="0">r</tspan><tspan x="45.97" y="0">e</tspan></text></g></g></svg>