<svg xmlns="http://www.w3.org/2000/svg" viewBox="0 0 202.38 202.41"><defs><style>.cls-1{fill:#231f20;}.cls-2{fill:#fff4b6;}.cls-3{fill:none;stroke:#231f20;stroke-linecap:round;stroke-miterlimit:10;stroke-width:3px;}.cls-4{fill:#ff7171;}.cls-5{fill:#ffa9a9;}.cls-6{fill:aqua;}</style></defs><title>cryingAsset 3</title><g id="Layer_2" data-name="Layer 2"><g id="Layer_2-2" data-name="Layer 2"><path class="cls-1" d="M88.61,68.56C84.67,78.1,52.28,78,27.81,64.81A77.34,77.34,0,0,1,13.14,54.52l-.59-.31A108.91,108.91,0,0,1,31.8,28.06C36.06,24,62.95-.74,101.44.28c35,.92,74,23.05,91.59,59.23l-.08,0c-6.77,5.68-17.13,12.6-30.78,15-34.26,6-68.71-20-73.57-12.76C87.31,63.75,89.87,65.52,88.61,68.56Z" transform="translate(-0.25 -0.25)"/><path class="cls-2" d="M101.44,202.66A101.19,101.19,0,0,1,.25,101.47a100,100,0,0,1,12.3-47.26l.59.31A77.34,77.34,0,0,0,27.81,64.81C52.28,78,84.67,78.1,88.61,68.56c1.25-3-1.31-4.81,0-6.76,4.86-7.25,39.31,18.81,73.57,12.76,13.65-2.41,24-9.33,30.78-15l.08,0a95,95,0,0,1,9.59,42A101.19,101.19,0,0,1,101.44,202.66Z" transform="translate(-0.25 -0.25)"/><path class="cls-3" d="M38.43,106c1.94-2,8.57-8.19,18.5-8.49,10.86-.33,18.19,6.66,20,8.49" transform="translate(-0.25 -0.25)"/><path class="cls-3" d="M129.43,106c1.94-2,8.57-8.19,18.5-8.49,10.86-.33,18.19,6.66,20,8.49" transform="translate(-0.25 -0.25)"/><path class="cls-4" d="M114.39,176H91.12a24.06,24.06,0,0,1,23.27,0Z" transform="translate(-0.25 -0.25)"/><path class="cls-5" d="M141.93,176H114.39a24.06,24.06,0,0,0-23.27,0H63.93c1.74-2.21,15.06-18.54,38-19C126.08,156.48,140.36,174,141.93,176Z" transform="translate(-0.25 -0.25)"/><path class="cls-6" d="M66.58,119.68c-.92-5.12,2.46-10.82,8.52-13.43,6,2.65,9.3,8.32,8.38,13.43-.68,3.74-3.87,8.45-8.45,8.45S67.25,123.44,66.58,119.68Z" transform="translate(-0.25 -0.25)"/><path class="cls-6" d="M122.58,119.68c-.92-5.12,2.46-10.82,8.52-13.43,6,2.65,9.3,8.32,8.38,13.43-.68,3.74-3.87,8.45-8.45,8.45S123.25,123.44,122.58,119.68Z" transform="translate(-0.25 -0.25)"/></g></g></svg>