<svg xmlns="http://www.w3.org/2000/svg" viewBox="0 0 202.38 202.41"><defs><style>.cls-1{fill:#fff4b6;}.cls-2{fill:#231f20;}.cls-3{fill:#fff;}.cls-4{fill:none;stroke:#231f20;stroke-linecap:round;stroke-miterlimit:10;}.cls-5{fill:#ffa9a9;}.cls-6{fill:#ff7171;}</style></defs><title>happyAsset 2</title><g id="Layer_2" data-name="Layer 2"><g id="Layer_1-2" data-name="Layer 1"><path class="cls-1" d="M193,59.52a95,95,0,0,1,9.59,41.95,101.19,101.19,0,0,1-202.38,0,100.07,100.07,0,0,1,12.3-47.26l.59.32A78,78,0,0,0,27.81,64.81C52.28,78,84.67,78.11,88.61,68.56c1.25-3-1.31-4.81,0-6.76,4.86-7.25,39.31,18.8,73.57,12.76,13.65-2.41,24-9.34,30.78-15Z" transform="translate(-0.25 -0.25)"/><path class="cls-2" d="M193,59.52l-.08,0c-6.77,5.68-17.13,12.6-30.78,15-34.26,6-68.71-20-73.57-12.76-1.31,1.94,1.25,3.71,0,6.76C84.67,78.11,52.28,78,27.81,64.81A78,78,0,0,1,13.14,54.53l-.59-.32A109.24,109.24,0,0,1,31.8,28.06C36.06,24,63-.73,101.44.28,136.49,1.21,175.43,23.35,193,59.52Z" transform="translate(-0.25 -0.25)"/><ellipse class="cls-3" cx="139.5" cy="100.96" rx="13.6" ry="18.38"/><ellipse class="cls-3" cx="62.18" cy="100.96" rx="13.6" ry="18.38"/><ellipse class="cls-2" cx="61.99" cy="108.04" rx="7.03" ry="7.07"/><ellipse class="cls-4" cx="61.99" cy="108.04" rx="7.03" ry="7.07"/><ellipse class="cls-2" cx="139.32" cy="108.04" rx="7.03" ry="7.07"/><ellipse class="cls-4" cx="139.32" cy="108.04" rx="7.03" ry="7.07"/><path class="cls-5" d="M128.39,162.9a40.1,40.1,0,0,1-17.09,11,24.06,24.06,0,0,0-23.09,0c-8.12-2.3-14.32-6.32-13.87-8.77C74.91,162.08,86.19,160,128.39,162.9Z" transform="translate(-0.25 -0.25)"/><path class="cls-6" d="M99.93,171a24.23,24.23,0,0,1,11.37,2.95,35.86,35.86,0,0,1-11.43,1.74,45.56,45.56,0,0,1-11.66-1.74A24.17,24.17,0,0,1,99.93,171Z" transform="translate(-0.25 -0.25)"/></g></g></svg>